<?xml version="1.0" encoding="utf-8"?>
<!-- Generator: Adobe Illustrator 23.0.2, SVG Export Plug-In . SVG Version: 6.00 Build 0)  -->
<svg version="1.1" id="Layer_2" xmlns="http://www.w3.org/2000/svg" xmlns:xlink="http://www.w3.org/1999/xlink" x="0px" y="0px"
	 viewBox="0 0 207.24 259.59" style="enable-background:new 0 0 207.24 259.59;" xml:space="preserve">
<style type="text/css">
	.st0{fill:#AAAAAA;}
</style>
<path class="st0" d="M103.35,57.44c0,0,0.84-49.55,50.4-57.44C153.75,0,156.56,55.75,103.35,57.44z"/>
<path class="st0" d="M54.64,257.35c0,0-55.75-36.04-54.62-135.15c3.94-28.16,23.65-46.18,34.35-51.24s23.09-10.7,42.23-5.07
	s27.9,16.33,51.96,1.69c15.05-7.88,39.83-3.94,49.96,0.56c10.14,4.5,23.09,19.71,23.09,19.71s-29.28,21.4-28.16,47.3
	c1.13,25.9,16.33,48.43,33.79,55.75c0,0-12.39,42.8-37.17,61.38c-11.26,10.7-33.79,5.07-33.79,5.07
	c-13.51-6.19-22.52-11.26-32.94-7.88c-10.42,3.38-28.44,9.36-28.44,9.36S64.78,261.29,54.64,257.35z"/>
</svg>
