<?xml version="1.0" encoding="utf-8"?>
<!-- Generator: Adobe Illustrator 23.0.2, SVG Export Plug-In . SVG Version: 6.00 Build 0)  -->
<svg version="1.1" id="Layer_1" xmlns="http://www.w3.org/2000/svg" xmlns:xlink="http://www.w3.org/1999/xlink" x="0px" y="0px"
	 viewBox="0 0 30.04 30.04" style="enable-background:new 0 0 30.04 30.04;" xml:space="preserve">
<style type="text/css">
	.st0{fill:#F7931E;stroke:#F7931E;stroke-width:0.75;stroke-miterlimit:10;}
	.st1{fill:#999999;stroke:#F7931E;stroke-width:0.75;stroke-miterlimit:10;}
	.st2{fill:#999999;}
</style>
<circle class="st0" cx="15.02" cy="14.38" r="9.27"/>
<path class="st1" d="M15.02,23.66c-5.12,0-9.27-4.15-9.27-9.27s4.15-9.27,9.27-9.27V23.66z"/>
<path class="st2" d="M15.02,4.08L15.02,4.08c-0.15,0-0.28-0.13-0.28-0.28V0.28c0-0.15,0.13-0.28,0.28-0.28l0,0
	c0.15,0,0.28,0.13,0.28,0.28V3.8C15.3,3.96,15.18,4.08,15.02,4.08z"/>
<path class="st2" d="M9.55,5.55L9.55,5.55c-0.13,0.08-0.31,0.03-0.38-0.1L7.41,2.4c-0.08-0.13-0.03-0.31,0.1-0.38l0,0
	c0.13-0.08,0.31-0.03,0.38,0.1l1.76,3.05C9.73,5.3,9.69,5.47,9.55,5.55z"/>
<path class="st2" d="M5.55,9.55L5.55,9.55C5.47,9.69,5.3,9.73,5.16,9.65L2.12,7.89c-0.13-0.08-0.18-0.25-0.1-0.38l0,0
	c0.08-0.13,0.25-0.18,0.38-0.1l3.05,1.76C5.58,9.24,5.63,9.42,5.55,9.55z"/>
<path class="st2" d="M4.08,15.02L4.08,15.02c0,0.15-0.13,0.28-0.28,0.28H0.28C0.13,15.3,0,15.18,0,15.02l0,0
	c0-0.15,0.13-0.28,0.28-0.28H3.8C3.96,14.74,4.08,14.87,4.08,15.02z"/>
<path class="st2" d="M5.55,20.49L5.55,20.49c0.08,0.13,0.03,0.31-0.1,0.38L2.4,22.63c-0.13,0.08-0.31,0.03-0.38-0.1h0
	c-0.08-0.13-0.03-0.31,0.1-0.38l3.05-1.76C5.3,20.31,5.47,20.36,5.55,20.49z"/>
<path class="st2" d="M9.55,24.49L9.55,24.49c0.13,0.08,0.18,0.25,0.1,0.38l-1.76,3.05c-0.08,0.13-0.25,0.18-0.38,0.1l0,0
	c-0.13-0.08-0.18-0.25-0.1-0.38l1.76-3.05C9.24,24.46,9.42,24.42,9.55,24.49z"/>
<path class="st2" d="M15.02,25.96L15.02,25.96c0.15,0,0.28,0.13,0.28,0.28v3.52c0,0.15-0.13,0.28-0.28,0.28l0,0
	c-0.15,0-0.28-0.13-0.28-0.28v-3.52C14.74,26.09,14.87,25.96,15.02,25.96z"/>
<path class="st2" d="M20.49,24.49L20.49,24.49c0.13-0.08,0.31-0.03,0.38,0.1l1.76,3.05c0.08,0.13,0.03,0.31-0.1,0.38v0
	c-0.13,0.08-0.31,0.03-0.38-0.1l-1.76-3.05C20.31,24.74,20.36,24.57,20.49,24.49z"/>
<path class="st2" d="M24.49,20.49L24.49,20.49c0.08-0.13,0.25-0.18,0.38-0.1l3.05,1.76c0.13,0.08,0.18,0.25,0.1,0.38h0
	c-0.08,0.13-0.25,0.18-0.38,0.1l-3.05-1.76C24.46,20.8,24.42,20.62,24.49,20.49z"/>
<path class="st2" d="M25.96,15.02L25.96,15.02c0-0.15,0.13-0.28,0.28-0.28h3.52c0.15,0,0.28,0.13,0.28,0.28l0,0
	c0,0.15-0.13,0.28-0.28,0.28h-3.52C26.09,15.3,25.96,15.18,25.96,15.02z"/>
<path class="st2" d="M24.49,9.55L24.49,9.55c-0.08-0.13-0.03-0.31,0.1-0.38l3.05-1.76c0.13-0.08,0.31-0.03,0.38,0.1l0,0
	c0.08,0.13,0.03,0.31-0.1,0.38l-3.05,1.76C24.74,9.73,24.57,9.69,24.49,9.55z"/>
<path class="st2" d="M20.49,5.55L20.49,5.55c-0.13-0.08-0.18-0.25-0.1-0.38l1.76-3.05c0.08-0.13,0.25-0.18,0.38-0.1v0
	c0.13,0.08,0.18,0.25,0.1,0.38l-1.76,3.05C20.8,5.58,20.62,5.63,20.49,5.55z"/>
<path class="st2" d="M15.02,4.08L15.02,4.08c-0.15,0-0.28-0.13-0.28-0.28V0.28c0-0.15,0.13-0.28,0.28-0.28v0
	c0.15,0,0.28,0.13,0.28,0.28V3.8C15.3,3.96,15.18,4.08,15.02,4.08z"/>
<path class="st2" d="M9.55,5.55L9.55,5.55c-0.13,0.08-0.31,0.03-0.38-0.1L7.41,2.4c-0.08-0.13-0.03-0.31,0.1-0.38l0,0
	c0.13-0.08,0.31-0.03,0.38,0.1l1.76,3.05C9.73,5.3,9.69,5.47,9.55,5.55z"/>
</svg>
