<?xml version="1.0" encoding="utf-8"?>
<!-- Generator: Adobe Illustrator 23.0.2, SVG Export Plug-In . SVG Version: 6.00 Build 0)  -->
<svg version="1.1" id="Layer_1" xmlns="http://www.w3.org/2000/svg" xmlns:xlink="http://www.w3.org/1999/xlink" x="0px" y="0px"
	 viewBox="0 0 105.8 115.77" style="enable-background:new 0 0 105.8 115.77;" xml:space="preserve">
<style type="text/css">
	.st0{fill:#CCCCCC;stroke:#000000;stroke-miterlimit:10;}
	.st1{fill:#E6E6E6;stroke:#000000;stroke-miterlimit:10;}
</style>
<path class="st0" d="M104.27,99.46c-11.01,9.83-25.55,15.81-41.48,15.81c-34.41,0-62.3-27.89-62.3-62.3
	c0-21.5,10.9-40.46,27.47-51.66c-9.6,24.49-5.31,52.26,11.24,72.42C63.93,103.85,101.86,99.76,104.27,99.46z"/>
<polygon class="st1" points="101.62,43.76 94.93,41.09 88.93,45.09 89.4,37.9 83.75,33.44 90.73,31.66 93.23,24.9 97.07,31 
	104.27,31.28 99.67,36.82 "/>
<polygon class="st1" points="97.68,77.15 90.99,74.48 84.99,78.48 85.46,71.29 79.81,66.82 86.79,65.05 89.29,58.29 93.13,64.39 
	100.33,64.67 95.73,70.21 "/>
<polygon class="st1" points="70.26,43.76 63.56,41.09 57.57,45.09 58.04,37.9 52.39,33.44 59.37,31.66 61.87,24.9 65.71,31 
	72.91,31.28 68.31,36.82 "/>
</svg>
